<mxfile host="app.diagrams.net" modified="2023-08-03T04:14:12.470Z" agent="Mozilla/5.0 (Windows NT 10.0; Win64; x64) AppleWebKit/537.36 (KHTML, like Gecko) Chrome/115.0.0.0 Safari/537.36" etag="MprHuPD9PyJDR-SYCXPn" version="21.6.6" type="github">
  <diagram id="C5RBs43oDa-KdzZeNtuy" name="Page-1">
    <mxGraphModel dx="1434" dy="758" grid="1" gridSize="10" guides="1" tooltips="1" connect="1" arrows="1" fold="1" page="1" pageScale="1" pageWidth="827" pageHeight="1169" math="0" shadow="0">
      <root>
        <mxCell id="WIyWlLk6GJQsqaUBKTNV-0" />
        <mxCell id="WIyWlLk6GJQsqaUBKTNV-1" parent="WIyWlLk6GJQsqaUBKTNV-0" />
        <mxCell id="lkM-y_qAxUJIHMLCBXUL-42" style="edgeStyle=orthogonalEdgeStyle;rounded=0;orthogonalLoop=1;jettySize=auto;html=1;exitX=0;exitY=0.25;exitDx=0;exitDy=0;entryX=1;entryY=0;entryDx=0;entryDy=32.5;entryPerimeter=0;" edge="1" parent="WIyWlLk6GJQsqaUBKTNV-1" source="WIyWlLk6GJQsqaUBKTNV-3" target="lkM-y_qAxUJIHMLCBXUL-5">
          <mxGeometry relative="1" as="geometry" />
        </mxCell>
        <mxCell id="WIyWlLk6GJQsqaUBKTNV-3" value="Containers App Desktop" style="rounded=1;whiteSpace=wrap;html=1;fontSize=12;glass=0;strokeWidth=1;shadow=0;" parent="WIyWlLk6GJQsqaUBKTNV-1" vertex="1">
          <mxGeometry x="414" y="30" width="120" height="40" as="geometry" />
        </mxCell>
        <mxCell id="lkM-y_qAxUJIHMLCBXUL-43" style="edgeStyle=orthogonalEdgeStyle;rounded=0;orthogonalLoop=1;jettySize=auto;html=1;exitX=1;exitY=0;exitDx=0;exitDy=67.5;exitPerimeter=0;" edge="1" parent="WIyWlLk6GJQsqaUBKTNV-1" source="lkM-y_qAxUJIHMLCBXUL-5">
          <mxGeometry relative="1" as="geometry">
            <mxPoint x="410" y="70" as="targetPoint" />
          </mxGeometry>
        </mxCell>
        <mxCell id="lkM-y_qAxUJIHMLCBXUL-5" value="Containers DB" style="shape=cylinder3;whiteSpace=wrap;html=1;boundedLbl=1;backgroundOutline=1;size=15;" vertex="1" parent="WIyWlLk6GJQsqaUBKTNV-1">
          <mxGeometry x="250" y="10" width="80" height="100" as="geometry" />
        </mxCell>
        <mxCell id="lkM-y_qAxUJIHMLCBXUL-38" style="edgeStyle=orthogonalEdgeStyle;rounded=0;orthogonalLoop=1;jettySize=auto;html=1;exitX=0.75;exitY=1;exitDx=0;exitDy=0;entryX=0;entryY=0;entryDx=0;entryDy=0;" edge="1" parent="WIyWlLk6GJQsqaUBKTNV-1" source="lkM-y_qAxUJIHMLCBXUL-10" target="lkM-y_qAxUJIHMLCBXUL-31">
          <mxGeometry relative="1" as="geometry" />
        </mxCell>
        <mxCell id="lkM-y_qAxUJIHMLCBXUL-48" style="edgeStyle=orthogonalEdgeStyle;rounded=0;orthogonalLoop=1;jettySize=auto;html=1;exitX=0.25;exitY=0;exitDx=0;exitDy=0;entryX=0.575;entryY=1.033;entryDx=0;entryDy=0;entryPerimeter=0;" edge="1" parent="WIyWlLk6GJQsqaUBKTNV-1" source="lkM-y_qAxUJIHMLCBXUL-10" target="lkM-y_qAxUJIHMLCBXUL-12">
          <mxGeometry relative="1" as="geometry" />
        </mxCell>
        <mxCell id="lkM-y_qAxUJIHMLCBXUL-49" style="edgeStyle=orthogonalEdgeStyle;rounded=0;orthogonalLoop=1;jettySize=auto;html=1;exitX=0.75;exitY=0;exitDx=0;exitDy=0;entryX=0.592;entryY=1.05;entryDx=0;entryDy=0;entryPerimeter=0;" edge="1" parent="WIyWlLk6GJQsqaUBKTNV-1" source="lkM-y_qAxUJIHMLCBXUL-10" target="lkM-y_qAxUJIHMLCBXUL-44">
          <mxGeometry relative="1" as="geometry" />
        </mxCell>
        <mxCell id="lkM-y_qAxUJIHMLCBXUL-10" value="Azure Blob Storage" style="rounded=1;whiteSpace=wrap;html=1;" vertex="1" parent="WIyWlLk6GJQsqaUBKTNV-1">
          <mxGeometry x="320" y="280" width="360" height="120" as="geometry" />
        </mxCell>
        <mxCell id="lkM-y_qAxUJIHMLCBXUL-12" value="Upload Containers&amp;nbsp;DB" style="shape=process;whiteSpace=wrap;html=1;backgroundOutline=1;" vertex="1" parent="WIyWlLk6GJQsqaUBKTNV-1">
          <mxGeometry x="340" y="160" width="120" height="60" as="geometry" />
        </mxCell>
        <mxCell id="lkM-y_qAxUJIHMLCBXUL-36" style="edgeStyle=orthogonalEdgeStyle;rounded=0;orthogonalLoop=1;jettySize=auto;html=1;exitX=0.25;exitY=0;exitDx=0;exitDy=0;entryX=0.642;entryY=1.017;entryDx=0;entryDy=0;entryPerimeter=0;" edge="1" parent="WIyWlLk6GJQsqaUBKTNV-1" source="lkM-y_qAxUJIHMLCBXUL-16" target="lkM-y_qAxUJIHMLCBXUL-32">
          <mxGeometry relative="1" as="geometry" />
        </mxCell>
        <mxCell id="lkM-y_qAxUJIHMLCBXUL-40" style="edgeStyle=orthogonalEdgeStyle;rounded=0;orthogonalLoop=1;jettySize=auto;html=1;exitX=0;exitY=0.25;exitDx=0;exitDy=0;entryX=1.063;entryY=0.41;entryDx=0;entryDy=0;entryPerimeter=0;" edge="1" parent="WIyWlLk6GJQsqaUBKTNV-1" source="lkM-y_qAxUJIHMLCBXUL-16" target="lkM-y_qAxUJIHMLCBXUL-19">
          <mxGeometry relative="1" as="geometry" />
        </mxCell>
        <mxCell id="lkM-y_qAxUJIHMLCBXUL-16" value="Containers App Mobile" style="rounded=1;whiteSpace=wrap;html=1;" vertex="1" parent="WIyWlLk6GJQsqaUBKTNV-1">
          <mxGeometry x="430" y="595" width="120" height="60" as="geometry" />
        </mxCell>
        <mxCell id="lkM-y_qAxUJIHMLCBXUL-41" style="edgeStyle=orthogonalEdgeStyle;rounded=0;orthogonalLoop=1;jettySize=auto;html=1;exitX=1;exitY=0;exitDx=0;exitDy=71.25;exitPerimeter=0;entryX=0;entryY=0.75;entryDx=0;entryDy=0;" edge="1" parent="WIyWlLk6GJQsqaUBKTNV-1" source="lkM-y_qAxUJIHMLCBXUL-19" target="lkM-y_qAxUJIHMLCBXUL-16">
          <mxGeometry relative="1" as="geometry" />
        </mxCell>
        <mxCell id="lkM-y_qAxUJIHMLCBXUL-19" value="Containers DB Mobile" style="shape=cylinder3;whiteSpace=wrap;html=1;boundedLbl=1;backgroundOutline=1;size=15;" vertex="1" parent="WIyWlLk6GJQsqaUBKTNV-1">
          <mxGeometry x="260" y="570" width="80" height="105" as="geometry" />
        </mxCell>
        <mxCell id="lkM-y_qAxUJIHMLCBXUL-39" style="edgeStyle=orthogonalEdgeStyle;rounded=0;orthogonalLoop=1;jettySize=auto;html=1;exitX=0.25;exitY=1;exitDx=0;exitDy=0;entryX=0.808;entryY=0.017;entryDx=0;entryDy=0;entryPerimeter=0;" edge="1" parent="WIyWlLk6GJQsqaUBKTNV-1" source="lkM-y_qAxUJIHMLCBXUL-31" target="lkM-y_qAxUJIHMLCBXUL-16">
          <mxGeometry relative="1" as="geometry" />
        </mxCell>
        <mxCell id="lkM-y_qAxUJIHMLCBXUL-31" value="Download Containers DB from Azure" style="shape=process;whiteSpace=wrap;html=1;backgroundOutline=1;" vertex="1" parent="WIyWlLk6GJQsqaUBKTNV-1">
          <mxGeometry x="530" y="450" width="120" height="60" as="geometry" />
        </mxCell>
        <mxCell id="lkM-y_qAxUJIHMLCBXUL-37" style="edgeStyle=orthogonalEdgeStyle;rounded=0;orthogonalLoop=1;jettySize=auto;html=1;exitX=0.75;exitY=0;exitDx=0;exitDy=0;entryX=0.167;entryY=1;entryDx=0;entryDy=0;entryPerimeter=0;" edge="1" parent="WIyWlLk6GJQsqaUBKTNV-1" source="lkM-y_qAxUJIHMLCBXUL-32" target="lkM-y_qAxUJIHMLCBXUL-10">
          <mxGeometry relative="1" as="geometry" />
        </mxCell>
        <mxCell id="lkM-y_qAxUJIHMLCBXUL-32" value="Upload Containers DB to Azure" style="shape=process;whiteSpace=wrap;html=1;backgroundOutline=1;" vertex="1" parent="WIyWlLk6GJQsqaUBKTNV-1">
          <mxGeometry x="350" y="450" width="120" height="60" as="geometry" />
        </mxCell>
        <mxCell id="lkM-y_qAxUJIHMLCBXUL-50" style="edgeStyle=orthogonalEdgeStyle;rounded=0;orthogonalLoop=1;jettySize=auto;html=1;exitX=0.5;exitY=0;exitDx=0;exitDy=0;entryX=0.7;entryY=1.075;entryDx=0;entryDy=0;entryPerimeter=0;" edge="1" parent="WIyWlLk6GJQsqaUBKTNV-1" source="lkM-y_qAxUJIHMLCBXUL-44" target="WIyWlLk6GJQsqaUBKTNV-3">
          <mxGeometry relative="1" as="geometry" />
        </mxCell>
        <mxCell id="lkM-y_qAxUJIHMLCBXUL-44" value="Download Containers&amp;nbsp;DB" style="shape=process;whiteSpace=wrap;html=1;backgroundOutline=1;" vertex="1" parent="WIyWlLk6GJQsqaUBKTNV-1">
          <mxGeometry x="520" y="160" width="120" height="60" as="geometry" />
        </mxCell>
      </root>
    </mxGraphModel>
  </diagram>
</mxfile>
